<?xml version="1.0" encoding="utf-8"?>
<!-- Generator: Adobe Illustrator 15.0.2, SVG Export Plug-In  -->
<!DOCTYPE svg PUBLIC "-//W3C//DTD SVG 1.1//EN" "http://www.w3.org/Graphics/SVG/1.1/DTD/svg11.dtd" [
	<!ENTITY ns_flows "http://ns.adobe.com/Flows/1.0/">
]>
<svg version="1.1"
	 xmlns="http://www.w3.org/2000/svg" xmlns:xlink="http://www.w3.org/1999/xlink" xmlns:a="http://ns.adobe.com/AdobeSVGViewerExtensions/3.0/"
	 x="0px" y="0px" width="167px" height="167px" viewBox="0 0 167 167" enable-background="new 0 0 167 167" xml:space="preserve">
<defs>
</defs>
<g>
	<defs>
		<rect id="SVGID_2_" y="0" width="166.73" height="166.731"/>
	</defs>
	<clipPath id="SVGID_3_">
		<use xlink:href="#SVGID_2_"  overflow="visible"/>
	</clipPath>
	<path clip-path="url(#SVGID_3_)" fill="#f1f1f1" d="M24.634,42.976c-0.788-0.511-1.541-0.687-2.262-0.528
		c-0.647,0.143-1.256,0.654-1.825,1.532l-0.31,0.479l4.68,3.036l0.425-0.656c0.42-0.645,0.649-1.162,0.689-1.549
		c0.041-0.386-0.052-0.787-0.284-1.198C25.518,43.68,25.146,43.308,24.634,42.976"/>
	<path clip-path="url(#SVGID_3_)" fill="#f1f1f1" d="M0,78.368l24.441-3.426c3.702-26.121,24.348-46.779,50.467-50.496l3.43-24.443
		C36.269,2.515,2.496,36.295,0,78.368 M18.703,65.947l-8.46-2.578l1.407-4.618l1.576,0.48l-0.92,3.02l1.53,0.466l0.92-3.02
		l1.547,0.472l-0.92,3.019l2.224,0.678l0.922-3.019l1.581,0.481L18.703,65.947z M27.619,45.947c-0.132,0.469-0.51,1.184-1.133,2.145
		l-1.101,1.698l-7.42-4.813l1.085-1.672c0.699-1.08,1.352-1.794,1.96-2.145c0.607-0.351,1.322-0.5,2.144-0.449
		c0.822,0.051,1.635,0.337,2.439,0.858c0.571,0.37,1.035,0.807,1.391,1.307c0.357,0.501,0.584,1.02,0.684,1.56
		C27.768,44.975,27.75,45.479,27.619,45.947 M37.639,34.522l-5.962-6.532l1.234-1.127l5.962,6.532L37.639,34.522z M48.785,26.019
		l-0.701-7.801l-2.523,1.381l-0.799-1.459l4.691-2.573l0.713,7.851l2.582-1.415l0.777,1.418L48.785,26.019z M65.247,18.952
		l-2.28-8.545l1.615-0.432l2.28,8.546L65.247,18.952z"/>
	<path clip-path="url(#SVGID_3_)" fill="#f1f1f1" d="M148.664,49.712c0.235-0.776,0.159-1.519-0.23-2.228
		c-0.397-0.715-0.977-1.179-1.747-1.392c-0.765-0.212-1.533-0.107-2.3,0.317c-0.854,0.473-1.362,1.154-1.522,2.042
		c-0.125,0.693-0.015,1.347,0.326,1.964c0.385,0.698,0.965,1.153,1.743,1.366c0.775,0.212,1.533,0.115,2.271-0.295
		C147.942,51.08,148.43,50.488,148.664,49.712"/>
	<path clip-path="url(#SVGID_3_)" fill="#f1f1f1" d="M140.19,35.845l-0.295-0.355l-1.394,1.159l0.335,0.405
		c0.342,0.411,0.631,0.649,0.868,0.715c0.238,0.065,0.481-0.006,0.729-0.214c0.151-0.123,0.246-0.269,0.293-0.437
		c0.048-0.168,0.039-0.336-0.019-0.504C140.65,36.445,140.476,36.189,140.19,35.845"/>
	<path clip-path="url(#SVGID_3_)" fill="#f1f1f1" d="M88.353,0l3.43,24.441c26.14,3.701,46.808,24.37,50.507,50.507l24.44,3.426
		C164.235,36.284,130.442,2.491,88.353,0 M138.588,39.027l-1.687,4.119l-1.174-1.414l1.61-3.919l-0.099-0.118l-2.879,2.391
		l-1.074-1.294l6.798-5.644l1.139,1.371c0.623,0.75,1,1.341,1.13,1.771c0.131,0.429,0.122,0.87-0.029,1.322
		c-0.149,0.453-0.438,0.855-0.862,1.208c-0.447,0.371-0.91,0.574-1.39,0.609C139.594,39.465,139.1,39.331,138.588,39.027
		 M144.5,53.382c-1.211-0.345-2.123-1.072-2.734-2.179c-0.641-1.161-0.774-2.348-0.395-3.559c0.379-1.212,1.118-2.122,2.223-2.732
		c0.74-0.408,1.517-0.606,2.336-0.59c0.818,0.015,1.582,0.234,2.289,0.66c0.711,0.426,1.263,1,1.662,1.722
		c0.604,1.095,0.729,2.254,0.373,3.478c-0.36,1.226-1.108,2.153-2.244,2.782C146.881,53.588,145.711,53.727,144.5,53.382
		 M147.903,63.893c-0.604-0.327-1.035-0.872-1.289-1.636c-0.196-0.598-0.224-1.166-0.078-1.707s0.479-1.073,1-1.596l1.257,1.073
		c-0.608,0.649-0.824,1.236-0.649,1.762c0.09,0.273,0.247,0.477,0.467,0.611c0.224,0.133,0.438,0.165,0.647,0.096
		c0.188-0.063,0.356-0.196,0.5-0.401c0.142-0.204,0.332-0.61,0.562-1.219c0.442-1.161,0.821-1.943,1.138-2.343
		c0.315-0.4,0.676-0.668,1.079-0.802c0.58-0.193,1.152-0.137,1.718,0.168c0.562,0.306,0.951,0.783,1.168,1.434
		c0.138,0.419,0.174,0.849,0.104,1.292c-0.065,0.443-0.285,0.97-0.649,1.582l-1.438-0.836c0.442-0.607,0.588-1.125,0.448-1.555
		c-0.071-0.21-0.185-0.362-0.34-0.459c-0.156-0.096-0.306-0.12-0.446-0.073c-0.14,0.046-0.257,0.138-0.351,0.274
		c-0.125,0.186-0.354,0.695-0.688,1.529c-0.308,0.778-0.507,1.254-0.595,1.427c-0.222,0.432-0.457,0.765-0.709,0.999
		c-0.256,0.235-0.56,0.411-0.912,0.528C149.157,64.269,148.512,64.219,147.903,63.893 M156.455,71.321l-7.068,1.24l-0.295-1.68
		l7.067-1.24l-0.269-1.544l1.632-0.286l0.844,4.809l-1.635,0.287L156.455,71.321z"/>
	<path clip-path="url(#SVGID_3_)" fill="#f1f1f1" d="M159.308,83.197c0.02,1.25-0.416,2.332-1.304,3.246
		c-0.894,0.914-1.987,1.382-3.289,1.402c-1.289,0.021-2.388-0.405-3.293-1.277c-0.908-0.873-1.371-1.942-1.392-3.208
		c-0.021-1.326,0.418-2.435,1.32-3.327c0.903-0.892,1.985-1.348,3.247-1.369c0.843-0.014,1.625,0.178,2.337,0.575
		c0.717,0.397,1.288,0.949,1.713,1.658C159.073,81.605,159.293,82.372,159.308,83.197 M157.661,83.206
		c-0.014-0.817-0.309-1.5-0.887-2.048c-0.576-0.548-1.304-0.814-2.181-0.801c-0.978,0.017-1.743,0.379-2.301,1.09
		c-0.435,0.552-0.647,1.181-0.638,1.887c0.015,0.797,0.315,1.472,0.899,2.023c0.586,0.552,1.3,0.82,2.146,0.807
		c0.841-0.014,1.548-0.308,2.119-0.882C157.394,84.708,157.674,84.016,157.661,83.206"/>
	<path clip-path="url(#SVGID_3_)" fill="#f1f1f1" d="M74.905,142.284c-26.11-3.716-46.752-24.365-50.461-50.479L0.001,88.38
		c2.504,42.064,36.272,75.836,78.334,78.349L74.905,142.284z M37.989,139.2l-2.047-1.783l-2.613,2.997l-1.258-1.097l5.804-6.66
		l3.306,2.88l-1.077,1.236l-2.047-1.783l-1.053,1.209l2.046,1.783L37.989,139.2z M46.828,150.016l-1.484-0.926l0.378-1.91
		l-3.058-1.908l-1.574,1.163l-1.482-0.926l7.568-5.689l1.447,0.902L46.828,150.016z M60.956,149.471
		c-0.438-1.078-1.123-1.799-2.055-2.162c-0.786-0.307-1.555-0.296-2.302,0.031c-0.747,0.328-1.275,0.886-1.583,1.673
		c-0.214,0.55-0.285,1.084-0.213,1.603c0.073,0.519,0.28,0.984,0.622,1.396c0.343,0.413,0.779,0.724,1.312,0.931
		c0.455,0.178,0.902,0.255,1.345,0.231c0.444-0.023,0.979-0.171,1.604-0.443l0.63,1.522c-0.839,0.356-1.575,0.544-2.205,0.563
		c-0.63,0.019-1.292-0.107-1.987-0.378c-1.279-0.499-2.168-1.313-2.667-2.442c-0.5-1.129-0.501-2.328-0.007-3.596
		c0.321-0.821,0.791-1.479,1.41-1.972c0.619-0.493,1.351-0.799,2.195-0.917c0.843-0.118,1.664-0.021,2.463,0.29
		c0.678,0.265,1.275,0.663,1.793,1.194c0.517,0.532,0.898,1.151,1.148,1.857L60.956,149.471z M72.018,158.451l-1.669-0.321
		l0.732-3.805l-2.895-0.557l-0.732,3.804l-1.675-0.322l1.669-8.676l1.674,0.322l-0.629,3.273l2.894,0.558l0.631-3.273l1.669,0.321
		L72.018,158.451z"/>
	<polygon clip-path="url(#SVGID_3_)" fill="#f1f1f1" points="46.062,145.46 46.667,142.263 44.057,144.208 	"/>
	<polygon clip-path="url(#SVGID_3_)" fill="#f1f1f1" points="122.228,144.429 119.634,142.465 120.214,145.669 	"/>
	<path clip-path="url(#SVGID_3_)" fill="#f1f1f1" d="M142.289,91.8c-3.709,26.13-24.371,46.789-50.504,50.491l-3.431,24.44
		c42.084-2.493,75.873-36.276,78.375-78.356L142.289,91.8z M100.274,157.203c-0.522,0.354-1.149,0.601-1.881,0.743
		c-1.349,0.263-2.535,0.051-3.56-0.637c-1.026-0.688-1.668-1.699-1.931-3.036c-0.168-0.864-0.12-1.671,0.14-2.419
		c0.259-0.748,0.715-1.396,1.365-1.948c0.647-0.551,1.394-0.907,2.233-1.072c0.715-0.14,1.435-0.122,2.155,0.051
		c0.722,0.173,1.377,0.491,1.964,0.955l-0.941,1.326c-0.946-0.678-1.911-0.921-2.893-0.729c-0.828,0.161-1.47,0.581-1.927,1.258
		s-0.606,1.431-0.444,2.261c0.114,0.578,0.338,1.067,0.678,1.467c0.339,0.399,0.763,0.683,1.272,0.849
		c0.507,0.166,1.044,0.194,1.604,0.085c0.479-0.094,0.898-0.269,1.263-0.523c0.36-0.257,0.733-0.668,1.117-1.232l1.348,0.949
		C101.317,156.299,100.797,156.851,100.274,157.203 M112.41,153.451l-1.418-3.605l-2.742,1.079l1.414,3.605l-1.586,0.623
		l-3.233-8.223l1.59-0.623l1.217,3.102l2.746-1.077l-1.221-3.104l1.584-0.621l3.231,8.223L112.41,153.451z M125.16,146.686
		l-1.543-1.187l-3.068,1.89l0.341,1.927l-1.488,0.916l-1.731-9.309l1.451-0.895l7.526,5.74L125.16,146.686z M131.31,142.128
		l-5.763-6.695l3.322-2.86l1.069,1.242l-2.058,1.771l1.046,1.215l2.059-1.771l1.054,1.224l-2.058,1.771l2.595,3.013L131.31,142.128z
		 M139.274,134.564l-5.349-4.783l-1.045,1.168l-1.235-1.104l3.254-3.64l1.236,1.104l-1.074,1.2l5.351,4.783L139.274,134.564z
		 M153.75,111.377l-2.813-1.167l1.896,3.382l-0.774,1.866l-2.459-4.361l-5.815,1.252l0.764-1.842l4.67-1.012l-3.627-1.504
		l0.65-1.569l8.161,3.385L153.75,111.377z M156.738,101.354c-0.439,0.598-0.984,1.078-1.642,1.44l-0.856-1.379
		c0.989-0.612,1.588-1.407,1.791-2.387c0.17-0.826,0.032-1.581-0.414-2.265c-0.447-0.684-1.084-1.111-1.912-1.283
		c-0.576-0.12-1.115-0.101-1.615,0.057s-0.924,0.439-1.274,0.845s-0.586,0.888-0.7,1.447c-0.101,0.479-0.103,0.934-0.005,1.366
		c0.097,0.433,0.33,0.935,0.703,1.507l-1.396,0.874c-0.492-0.769-0.799-1.462-0.922-2.081c-0.123-0.618-0.11-1.292,0.043-2.021
		c0.278-1.345,0.935-2.356,1.965-3.035c1.031-0.68,2.213-0.881,3.546-0.604c0.862,0.179,1.588,0.533,2.178,1.063
		c0.588,0.529,1.013,1.2,1.269,2.013c0.256,0.812,0.297,1.637,0.123,2.476C157.47,100.1,157.177,100.755,156.738,101.354"/>
	<path clip-path="url(#SVGID_3_)" fill="#f1f1f1" d="M85.952,151.628l-1.262,1.078c-0.427-0.615-0.867-0.928-1.321-0.934
		c-0.221-0.004-0.401,0.053-0.542,0.168c-0.143,0.115-0.215,0.248-0.219,0.396c-0.001,0.146,0.047,0.289,0.144,0.422
		c0.134,0.178,0.54,0.564,1.215,1.154c0.632,0.547,1.017,0.893,1.151,1.035c0.334,0.35,0.57,0.682,0.707,0.998
		c0.14,0.318,0.203,0.662,0.197,1.036c-0.011,0.724-0.272,1.317-0.779,1.782c-0.51,0.463-1.168,0.689-1.972,0.676
		c-0.629-0.01-1.175-0.174-1.637-0.488c-0.462-0.316-0.853-0.807-1.176-1.473l1.428-0.83c0.412,0.787,0.895,1.186,1.447,1.195
		c0.289,0.004,0.532-0.076,0.731-0.24c0.2-0.166,0.301-0.359,0.305-0.578c0.003-0.201-0.067-0.402-0.213-0.605
		c-0.144-0.201-0.467-0.514-0.966-0.934c-0.949-0.801-1.561-1.416-1.834-1.848c-0.275-0.43-0.407-0.857-0.401-1.282
		c0.01-0.612,0.252-1.134,0.726-1.565c0.474-0.43,1.054-0.641,1.739-0.629c0.44,0.008,0.858,0.115,1.256,0.326
		C85.071,150.7,85.498,151.079,85.952,151.628"/>
	<polygon clip-path="url(#SVGID_3_)" fill="#f1f1f1" points="79.693,7.637 81.309,7.637 85.094,13.457 85.094,7.637 86.775,7.637
		86.775,16.482 85.155,16.482 81.377,10.68 81.377,16.482 79.693,16.482 	"/>
	<polygon clip-path="url(#SVGID_3_)" fill="#f1f1f1" points="7.624,87.08 7.624,85.44 13.792,83.39 7.624,81.321 7.624,79.682
		16.467,78.198 16.467,79.826 10.882,80.774 16.467,82.653 16.467,84.137 10.882,85.999 16.467,86.97 16.467,88.611 	"/>
</g>
<g>
	<defs>
		<rect id="SVGID_1_" y="0" width="166.73" height="166.731"/>
	</defs>
	<clipPath id="SVGID_4_">
		<use xlink:href="#SVGID_1_"  overflow="visible"/>
	</clipPath>
	<path clip-path="url(#SVGID_4_)" fill="#f1f1f1" d="M80.08,115.957c-0.031,0.158-0.348,0.754-0.376,1.191
		c-0.032,0.44-0.061,1.725,0,2.132c0.064,0.409,0.534,1.663,0.735,2.449c0.205,0.78,0.354,2.601,0.33,3.002
		c-0.023,0.397-0.33,1.363-0.33,1.811c0,0.448,0.354,1.718,0.354,1.718c0.115,0.657,0.283,1.293,0.142,2.306
		c-0.142,1.011,0.304,2.067,0.399,2.421c0.095,0.354,1.176,2.117,1.272,2.47c0.096,0.354-0.096,0.896,0.096,1.154
		c0.187,0.257,0.516,1.175,0.643,1.434c0.128,0.259,0.884,0.447,1.024,0.588c0.14,0.142,0.306-0.047,0.47-0.4
		c0.166-0.354,0.399-1.035,0.373-1.976c-0.017-0.94-0.606-1.67-1.285-4.328c-0.674-2.657-0.657-5.245-0.657-5.245
		c-1.339-2.037-1.371-3.67-1.339-5.457c0.033-1.787,0.629-4.233,0.785-4.703c0.157-0.474,0.289-2.886,0.289-2.886
		c0.266-0.881,0.009-1.914,0.15-2.869c0.142-0.958,0.124-2.902,0.094-3.765c-0.03-0.863-0.298-1.989-0.359-2.273
		c-0.065-0.282-0.08-1.943-0.225-2.593c0,0-0.301,0.422-0.529,1.05c-0.246,0.665-0.365,0.763-0.518,2.232
		c-0.152,1.47,0.153,1.706,0.199,2.446c0.046,0.741-0.025,1.036-0.072,1.584c-0.049,0.549-0.049,0.8-0.127,1.083
		c-0.08,0.281-0.188,0.784-0.188,1.082s-0.095,0.564-0.252,0.705c-0.155,0.14-0.22,0.392-0.22,0.738
		c0,0.343-0.188,0.769-0.297,0.938c-0.107,0.173-0.063,0.377-0.045,0.643c0.014,0.269-0.189,0.787-0.189,0.787
		C80.267,115.863,80.111,115.8,80.08,115.957"/>
	<path clip-path="url(#SVGID_4_)" fill="#f1f1f1" d="M58.041,134.086c6.325,3.164,13.322,5.175,20.724,5.77
		c-0.229-0.135-0.35-0.222-0.355-0.343c-0.009-0.155-0.335-0.628-0.494-0.974c-0.158-0.347-0.062-0.626,0.062-1.004
		c0.125-0.376,0.284-0.69,0.345-1.314c0.063-0.629,0.158-0.911,0-1.821c-0.157-0.911-1.317-2.226-1.853-3.292
		c-0.54-1.066-0.783-2.824-0.874-3.137c-0.095-0.314-0.595-1.443-0.595-1.443c-1.427-3.771-0.818-6.617-0.69-7.15
		c0.125-0.534,0.344-2.603,0.533-3.17c0.186-0.564,0.249-1.755,0.281-2.162c0.03-0.408,0.062-0.691,0.126-1.162
		c0.062-0.472,0.188-0.721,0.283-1.067c0.091-0.344,0.218-1.943,0.282-2.287c0.064-0.346-0.064-1.004-0.156-1.567
		c-0.098-0.564-0.787-2.947-0.881-3.325c-0.093-0.376-0.156-1.286-0.252-1.13c-0.091,0.157-0.248,0.627-0.437,1.1
		c-0.188,0.47-1.192,1.941-1.504,2.32c-0.315,0.377-0.912,1.003-0.912,1.003c-0.531,1.159-1.347,1.755-1.756,2.069
		c-0.406,0.314-1.066,0.94-1.695,1.631c-0.624,0.69-1.159,2.354-1.596,3.073c-0.44,0.724-0.503,1.728-0.691,2.261
		c-0.188,0.532-0.752,1.629-1.254,2.508c-0.502,0.881-1.287,1.694-1.726,2.166c-0.436,0.469-0.561,1.035-0.878,1.505
		c-0.31,0.472-1.128,1.851-1.506,2.383c-0.375,0.532-0.783,1.567-0.783,2.509s-0.502,2.195-0.689,2.508
		c-0.188,0.314-0.44,0.817-0.501,1.289c-0.064,0.469,0.092,0.469,0.123,0.752c0.032,0.281-0.031,0.656-0.123,1.002
		C58.518,133.873,58.228,134.024,58.041,134.086"/>
	<path clip-path="url(#SVGID_4_)" fill="#f1f1f1" d="M106.359,133.904c-0.443-0.541-0.396-1.811-0.49-2.212
		c-0.095-0.398-0.78-1.621-1.015-1.999c-0.233-0.377-1.291-1.856-1.856-2.281c-0.565-0.422-1.687-1.795-2.217-2.485
		c-0.533-0.69-1.101-2.886-1.101-2.886c-0.94-0.554-3.039-2.979-3.293-3.95c-0.25-0.973-1.127-3.983-1.285-4.578
		c-0.157-0.598-0.346-1.697-0.627-2.229c-0.282-0.532-1.599-2.822-1.694-3.137c-0.095-0.312-0.908-2.102-1.067-2.414
		c-0.152-0.314-0.595-0.879-0.625-0.72c-0.033,0.153-0.412,1.566-0.503,1.85c-0.094,0.281-0.342,1.098-0.407,1.505
		c-0.06,0.408-0.502,1.003-0.502,1.003c-0.074,0.612-0.283,1.85-0.313,2.069c-0.031,0.22-0.031,0.534,0.094,1.191
		c0.123,0.658-0.188,1.537-0.5,2.354c-0.315,0.815-0.44,1.222-0.535,1.663c-0.092,0.438-0.344,1.313-0.313,2.13
		c0.028,0.816,0.282,2.636,0.471,4.203c0.187,1.569,0.125,3.954,0.062,4.83c-0.062,0.88-0.108,1.059-0.088,1.646
		c0.026,0.593-0.047,2.776,0.097,3.316c0.141,0.543,1.012,2.683,1.293,3.013c0.282,0.327,1.176,0.729,1.905,1.199
		c0.728,0.472,3.153,1.342,3.647,1.39c0.297,0.027,0.703,0.072,1.078,0.119c3.67-0.876,7.2-2.107,10.555-3.659
		C106.834,134.642,106.644,134.245,106.359,133.904"/>
	<path clip-path="url(#SVGID_4_)" fill="#f1f1f1" d="M44.205,44.805c0.167,0.164,0.514,0.227,0.796,0.43
		c0.284,0.204,0.378,0.361,0.676,0.644c0.296,0.283,0.155,0.531,0.249,0.909c0.096,0.376,0.254,0.549,0.531,0.798
		c0.283,0.252,0.3,0.158,0.521,0.173c0.217,0.018,0.235,0.109,0.581,0.234c0.341,0.129,0.548,0.206,0.893,0.346
		c0.344,0.143,0.5,0.095,0.829,0.157c0.332,0.064,0.533,0.33,0.958,0.551c0.424,0.217,1.052,0.327,1.052,0.327
		c2.875-0.261,4.218,0.614,4.218,0.614c0.845,0.311,1.677,1.003,1.677,1.003c2.037,0.789,3.417,1.927,3.417,1.927
		c0.174,0.19,0.805,0.768,1.192,0.8c1.097,0.091,4.267,0.705,4.722,0.879c0.456,0.173,1.866,1.066,1.866,1.066
		s0.502,0.158,0.765,0.092c0.27-0.062,1.68-0.345,2.526-0.311c0.849,0.031,2.009,0.58,2.136,0.595
		c0.125,0.017,0.217,0.079,0.671,0.142c0.454,0.062,0.612,0.236,1.115,0.345c0.501,0.11,0.892,0.517,1.3,0.752
		c0.407,0.237,0.172,0,0.298-0.078c0.126-0.079-0.126-0.297-0.282-0.391c-0.155-0.096-0.298-0.096-0.473-0.234
		c-0.169-0.143-0.185-0.143-0.232-0.394c-0.047-0.252,0.156-0.235,0.187-0.47c0.032-0.236-0.061-0.062-0.172-0.186
		c-0.111-0.129-0.111-0.222-0.236-0.456c-0.124-0.237-0.123-0.253-0.326-0.253c-0.207,0-0.457,0.016-0.553-0.14
		c-0.09-0.158-0.028-0.205-0.028-0.503c0-0.299,0.267-0.047,0.343-0.235c0.079-0.187-0.076-0.187-0.171-0.298
		c-0.096-0.109-0.253-0.047-0.329-0.188c-0.078-0.141-0.092-0.031-0.207-0.157c-0.108-0.125-0.108-0.139-0.188-0.22
		c-0.078-0.079-0.185-0.093-0.248-0.249c-0.063-0.159-0.124-0.341-0.189-0.412c-0.064-0.071-0.105-0.341-0.071-0.552
		c0.035-0.213,0.048-0.109,0.082-0.161c0.037-0.052,0.037-0.145,0-0.269c-0.034-0.125-0.051-0.105-0.082-0.208
		c-0.029-0.098,0.164-0.204,0.319-0.316c0.15-0.111,0.082-0.023,0.281-0.005c0.201,0.016,0.334,0.099,0.441,0.036
		c0.106-0.065,0.019-0.232-0.005-0.372c-0.025-0.142-0.211-0.236-0.284-0.422c-0.07-0.19,0.026-0.331-0.048-0.496
		c-0.068-0.164-0.281-0.259-0.516-0.471c-0.233-0.211,0.072-0.283,0.166-0.824c0.094-0.538,0.069-0.586,0.234-0.869
		c0.164-0.282,0.448-0.187,0.66-0.187c0.211,0,0.094-0.26,0.094-0.589c0-0.33,0.211-0.306,0.352-0.59
		c0.141-0.28,0.306-0.162,0.636-0.162c0.331,0,0.469,0.094,0.681-0.025c0.212-0.115,0.046-0.563,0-0.8
		c-0.048-0.234,0.355-0.586,0.657-0.797c0.048-0.032,0.102-0.052,0.161-0.067H43.625C43.867,44.483,44.08,44.679,44.205,44.805"/>
	<path clip-path="url(#SVGID_4_)" fill="#f1f1f1" d="M127.373,47.807c-0.218,0.187-0.519,0.187-0.75,0.439
		c-0.236,0.25-0.619,0.368-0.904,0.509c-0.283,0.14-0.446,0.236-0.612,0.308c-0.162,0.067-0.492,0.164-0.658,0.422
		c-0.164,0.258-0.305,0.494-0.517,0.68c-0.213,0.191-0.75,0.378-1.104,0.472c-0.353,0.093-0.729-0.021-0.965,0
		c-0.233,0.024-0.657,0.282-1.104,0.517c-0.447,0.238-0.989,0.378-1.412,0.684c-0.42,0.303-0.588,0.375-1.178,0.634
		c-0.586,0.259-1.315,0.776-1.691,1.011c-0.375,0.235-1.362,0.824-1.834,1.154c-0.473,0.326-0.825,0.376-1.389,0.752
		c-0.565,0.375-2.235,0.94-2.611,1.199c-0.375,0.26-1.176,0.446-1.176,0.446s-0.14,0.026-0.612,0.166
		c-0.47,0.142-0.822-0.19-1.531-0.164c-0.705,0.024-1.504,0.799-1.901,1.035c-0.399,0.235-0.824,0.235-1.248,0.468
		c-0.422,0.237-1.199,0.59-1.385,0.754c-0.189,0.164-0.332,0.518-0.332,0.518s0.562,0.023,1.106-0.024
		c0.539-0.046,1.506,0.071,2.211,0.21c0.705,0.144,1.278,0.324,1.512,0.417c0.236,0.095,0.347-0.11,0.599-0.187
		c0.25-0.079,0.517-0.235,0.877-0.344c0.358-0.111,0.91-0.254,1.3-0.299c0.394-0.048,1.256,0,1.946-0.017
		c0.687-0.016,1.315-0.139,1.584-0.139c0.265,0,0.705-0.017,1.113-0.017c0.409,0,0.721,0.14,0.924,0.187
		c0.205,0.049,0.582,0.096,0.91,0.221c0.329,0.126,0.502,0.203,0.723,0.203c0.22,0,0.283-0.095,0.72-0.095h0.911h1.144
		c0.298,0,0.519-0.203,0.658-0.265c0.144-0.064,1.254-0.111,1.601-0.126c0.348-0.016,0.707-0.518,1.348-0.895
		c0.642-0.374,0.964-0.392,1.222-0.436c0.261-0.048,0.237,0,0.552,0c0.313,0,0.522-0.043,0.901-0.086
		c0.373-0.048,0.194,0,0.633,0.013c0.44,0.016,0.416,0,0.531-0.009c0.121-0.004,0.678-0.068,0.937-0.068c0.258,0,0.36,0,0.5,0.047
		c0.142,0.046,0.416,0.182,0.565,0.267c0.012,0.007,0.035,0.004,0.051,0.01v-7.894c-0.668-0.936-1.356-1.852-2.077-2.744
		C127.43,47.763,127.401,47.785,127.373,47.807"/>
	<path clip-path="url(#SVGID_4_)" fill="#f1f1f1" d="M88.186,44.311c0.145,0.017,0.282,0.125,0.598,0.25
		c0.313,0.124,0.125,0.186,0.203,0.455c0.078,0.268,0.125,0.456,0.283,0.941c0.155,0.485,0.075,0.186,0.187,0.408
		c0.11,0.218,0.172-0.016,0.409-0.159c0.236-0.141,0.205-0.108,0.658-0.155c0.457-0.048,0.252,0.126,0.377,0.422
		c0.125,0.298,0.424,0.316,0.108,0.786c-0.31,0.47-0.233-0.124-0.657,0.453c-0.427,0.582,0.061,0.095,0.266,0.078
		c0.205-0.013,0.188,0.017,0.472,0.079c0.28,0.063,0.155,0.125,0.297,0.298c0.142,0.172-0.017,0.33-0.094,0.425
		c-0.076,0.094-0.109,0.124-0.187,0.471c-0.08,0.345-0.063,0.408,0.155,0.624c0.22,0.219,0.55-0.015,0.69,0.096
		c0.142,0.11,0.08,0.061,0.205,0.252c0.123,0.186,0.013,0.216,0.108,0.64c0.095,0.425-0.03,0.409-0.127,0.583
		c-0.094,0.173-0.094,0.11-0.377,0.312c-0.28,0.206-0.125,0.139-0.153,0.378c-0.031,0.231,0.045,0.125,0.231,0.579
		c0.192,0.455,0.112,0.172-0.216,0.236c-0.331,0.064-0.061,0.217-0.219,0.452c-0.16,0.238-0.127,0.08-0.315,0.283
		c-0.188,0.206-0.22,0.301-0.22,0.584c0,0.282-0.192,0.186-0.536,0.374c-0.341,0.188-0.279,0.469-0.062,0.691
		c0.221,0.218-0.027,0.408-0.093,0.561c-0.06,0.158-0.532,0.378-0.532,0.378s-0.406,0.095-0.535,0.282c-0.125,0.189,0,0-0.092,0.283
		c-0.095,0.284-0.125,0.189-0.439,0.376c-0.313,0.186,0.031,0.347,0.156,0.407c0.125,0.065,0.41,0.473,0.595,0.314
		c0.188-0.157,1.413-0.874,1.413-0.874c0.923-0.375,1.505-0.317,1.505-0.317c0.998-0.799,2.04-1.035,3.385-1.223
		c1.351-0.187,2.168,0.315,2.354,0.374c0.188,0.066,0.127,0.348,0.595,0.095c0.471-0.248,2.853-1.347,3.577-1.63
		c0.72-0.282,2.976-0.439,3.103-0.502c0.127-0.062,0.942-1.098,0.942-1.098c0.734-0.707,2.941-1.512,3.103-1.63
		c0.169-0.116,1.64-1.057,2.796-1.363c1.149-0.307,3.668-0.73,3.901-0.777c0.235-0.048,0.379-0.331,1.226-0.68
		c0.846-0.355,2.885-1.164,3.01-1.179c0.127-0.016,0.172-0.173,0.283-0.298c0.108-0.125,0.627-0.878,0.782-1.05
		c0.158-0.172,0.55-0.627,1.177-0.849c0.389-0.135,0.717-0.321,0.953-0.479H88.063C88.104,44.29,88.146,44.306,88.186,44.311"/>
	<path clip-path="url(#SVGID_4_)" fill="#f1f1f1" d="M129.189,63.174c-0.271,0.094-0.998,0.164-1.494,0.178
		c-0.494,0.012-0.951-0.037-1.115,0.022c-0.166,0.061-0.485,0.071-0.812,0.071c-0.334,0-1.2,0.21-1.426,0.305
		c-0.222,0.094-1.375-0.058-1.547-0.058c-0.171,0-0.673-0.19-0.94-0.109c-0.267,0.077-1.005,0.203-1.664,0.203
		c-0.656,0-2.224-0.014-2.695,0.11c-0.469,0.124-2.12,0.563-2.416,0.641c-0.297,0.081-1.284,0.364-1.772,0.424
		c-0.485,0.065-2.711-0.125-3.198-0.125c-0.484,0-1.816-0.048-2.211-0.154c-0.394-0.112-0.769-0.677-1.457-0.488
		c-0.691,0.189-2.214,0.204-2.589,0.189c-0.375-0.016-1.68-0.094-2.243-0.094c-0.565,0-1.957,0.499-2.459,0.531
		c-0.504,0.034-1.082-0.283-1.759-0.283c-0.674,0-1.851,0.472-2.067,0.627c-0.222,0.159-1.022,0.362-1.256,0.692
		c-0.234,0.33-0.377,0.956-0.502,1.223c-0.127,0.267-0.396,0.659-0.438,0.893c-0.048,0.237-0.234,0.503-0.22,1.053
		c0.013,0.547-0.424,1.723-0.424,1.723c-0.144,0.52-0.8,1.752-0.896,2.54c-0.181,1.541-0.423,2.117-0.517,2.4
		c-0.092,0.284-0.373,0.753-0.328,1.035c0.045,0.282,0.281,1.036,0.375,1.506c0.097,0.47-0.03,0.879,0.25,1.63
		c0.283,0.753,0.127,1.472-0.03,1.693c-0.156,0.22-0.41,0.66-0.283,0.752c0.127,0.097,0.283,0.534,0.41,1.006
		c0.123,0.469,0.971,2.541,1.19,3.448c0.22,0.91,0.125,2.729,0.285,3.074c0.153,0.345,0.508,1.239,0.905,1.969
		c0.404,0.729,1.297,2.164,1.601,2.564c0.308,0.397,0.94,2.492,1.129,3.15c0.19,0.658,0.699,1.874,1.123,3.081
		c0.422,1.209,0.242,2.447,0.242,2.447c-0.07,0.329,0.047,1.06,0.139,1.341c0.097,0.283,0.332,1.553,0.615,1.951
		c0.282,0.401,0.541,0.729,0.633,0.916c0.095,0.191,0.283,0.686,0.33,1.037c0.047,0.354,0.166,0.775,0.235,1.176
		c0.07,0.398,0.279,0.965,0.423,1.365c0.141,0.4,0.659,1.293,0.967,1.692c0.302,0.401,1.431,2.093,1.785,2.707
		c0.353,0.609,2.188,4.232,2.305,4.585c0.119,0.352,0.636,1.906,0.729,2.353c0.093,0.445,0.753,2.046,0.919,2.704
		c0.165,0.66,1.059,2.471,1.692,3.245c0.633,0.776,1.198,1.131,1.342,1.247c0.14,0.119,0.373,0.023,1.056-0.093
		c0.685-0.117,1.014,0.024,1.578-0.048c0.563-0.069,0.823-0.211,1.2-0.33c0.375-0.114,0.634-0.187,0.942-0.187
		c0.304,0,0.492-0.213,0.705,0.095c0.211,0.305-0.164,0.353,0.281,0.353c0.267,0,0.383,0.19,0.433,0.376
		c5.129-3.661,9.622-8.152,13.284-13.283V63.107C129.408,63.123,129.283,63.142,129.189,63.174"/>
	<path clip-path="url(#SVGID_4_)" fill="#f1f1f1" d="M132.535,55.157v56.415c4.774-8.309,7.522-17.935,7.522-28.207
		C140.058,73.092,137.31,63.467,132.535,55.157"/>
	<path clip-path="url(#SVGID_4_)" fill="#f1f1f1" d="M121.331,41.268c-10.053-9.069-23.36-14.595-37.966-14.595
		c-14.604,0-27.916,5.526-37.966,14.595H121.331z"/>
	<path clip-path="url(#SVGID_4_)" fill="#f1f1f1" d="M34.146,55.246c-4.746,8.289-7.473,17.883-7.473,28.119
		c0,10.235,2.727,19.83,7.473,28.119V55.246z"/>
	<path clip-path="url(#SVGID_4_)" fill="#f1f1f1" d="M38.761,57.827c0.249-0.016,1.004-0.204,1.177-0.157
		c0.172,0.045,1.267,0.861,1.519,0.956c0.251,0.094,0.567-0.14,1.067-0.016c0.502,0.126,0.942,0.401,1.08,0.495
		c0.143,0.093,1.297,0.942,1.388,0.942c0.094,0,0.377-0.164,1.248-0.19c0.872-0.023,0.99,0.14,2.423,0.164
		c1.434,0.026,2.093-0.61,3.152-0.657c1.058-0.048,2.189,0.588,3.009,0.588c0.826,0,0.874-0.377,2.19-0.39
		c1.314-0.011,2.47,0.862,2.8,1.001c0.329,0.14,0.759,0.134,0.759,0.134c2.267-0.919,4.198-0.908,5.38-0.752l-0.549-0.534
		c-0.157-0.142-0.474-0.455-0.738-0.518c-0.267-0.062-0.737,0-1.41-0.283c-0.676-0.282-0.662-0.297-1.068-0.47
		c-0.408-0.171-1.02-0.345-1.396-0.517c-0.377-0.172-0.829-0.346-1.083-0.41c-0.25-0.059-0.72-0.092-1.082-0.03
		c-0.359,0.063-0.922-0.235-1.223-0.422c-0.296-0.187-0.8-0.363-1.363-0.424c-0.564-0.065-1.27-0.408-1.646-0.517
		c-0.375-0.109-1.694-0.784-1.959-0.942c-0.267-0.155-2.055-1.426-2.228-1.52c-0.175-0.096-0.581-0.486-0.926-0.612
		c-0.343-0.127-1.816-0.598-2.131-0.69c-0.315-0.093-0.957-0.564-1.1-0.689c-0.14-0.127-0.484-0.408-0.691-0.425
		c-0.2-0.014-0.684,0.06-1.106-0.092c-0.423-0.154-0.931-0.742-0.94-0.79c-0.013-0.045-0.106-0.223-0.413-0.27
		c-0.307-0.048-0.896-0.316-1.036-0.445c-0.142-0.13-0.66-0.542-0.939-0.66c-0.283-0.117-0.592-0.295-0.777-0.414
		c-0.192-0.114-0.492-0.317-0.742-0.422c-0.048-0.02-0.102-0.049-0.155-0.08c-0.732,0.906-1.431,1.836-2.106,2.787v7.239
		C37.451,57.717,38.534,57.842,38.761,57.827"/>
	<path clip-path="url(#SVGID_4_)" fill="#f1f1f1" d="M52.52,130.922c0.008-0.132,0.025-0.263,0.025-0.348
		c0-0.188,0.691-0.722,0.911-0.785c0.218-0.063,0.812,0.063,0.97,0c0.155-0.063,0.658-0.47,0.848-0.625
		c0.187-0.159,0.407-0.222,0.382-0.347c-0.027-0.125,0.245-0.69,0.339-0.878c0.094-0.189,0.594-0.722,0.722-1.097
		c0.125-0.379,0.407-1.666,0.439-2.197c0.031-0.536,0.405-2.792,0.501-3.325c0.096-0.534,0.72-1.943,0.879-2.352
		c0.156-0.407,0.31-1.539,0.752-2.982c0.439-1.44,3.011-5.015,3.48-5.518c0.472-0.503,2.666-3.121,2.697-3.199
		c0.031-0.079,0.266-0.55,0.362-0.83c0.094-0.281,0.753-1.052,1.113-1.334c0.362-0.283,1.394-1.958,1.394-1.958
		c0.252-0.41,0.123-2.387,0.484-3.615c0.475-1.608,1.352-3.082,1.352-3.082c0.22-1.944,1.255-4.424,1.946-5.301
		c0.69-0.877,1.832-3.065,1.832-3.373c0-0.304,0.306-1.011,0.404-1.314c0.091-0.307,0.326-1.67,0.397-2.024
		c0.072-0.352,0.565-1.578,0.613-1.742c0.046-0.163,0.139-0.469,0.139-0.469s0.354-0.047,0.187-0.305
		c-0.162-0.26-0.209-1.555-0.187-1.742c0.025-0.188,0.284-0.964,0.331-1.176c0.048-0.21,0.116-0.775,0.163-1.035
		c0.046-0.258,0.236-0.751,0.378-0.895c0.14-0.138,0.116-0.447,0-0.68c-0.119-0.236-1.083-2.283-1.293-2.965
		c-0.212-0.683-0.777-3.033-0.85-3.316c-0.069-0.283-0.023-0.964-0.114-1.106c-0.096-0.14-0.404-0.776-0.59-1.035
		c-0.188-0.26-0.517-1.128-0.94-2.116c-0.425-0.988-1.882-0.964-2.471-0.847c-0.587,0.117-1.858,0-2.376,0
		c-0.518,0-1.883-0.472-2.446-0.73c-0.564-0.259-1.38-0.211-1.835-0.211c-0.454,0-2.1,0.141-2.602,0.095
		c-0.504-0.048-1.285-0.111-1.647,0c-0.363,0.106-1.285,0.391-1.787,0.407c-0.504,0.014-1.333,0.092-1.741,0.218
		c-0.407,0.127-2.352,0.066-2.727,0c-0.377-0.059-2.588-0.519-2.825-0.611c-0.234-0.095-0.704-0.312-1.082-0.405
		c-0.374-0.097-1.581-0.049-2.117-0.086c-0.533-0.037-1.396-0.23-1.7-0.251c-0.308-0.025-0.637,0.115-0.919,0.21
		c-0.283,0.092-0.845,0-1.199,0s-0.917-0.143-1.151-0.258c-0.238-0.119-0.755,0-0.941,0c-0.191,0-0.66-0.377-0.66-0.377
		c-0.445,0.305-0.633,0.047-0.798,0.047h-1.014c-0.21,0-0.655-0.025-0.871,0.07c-0.122,0.055-0.328,0.067-0.531,0v53.047
		C41.292,122.006,46.512,127.017,52.52,130.922"/>
</g>
</svg>
